<svg xmlns="http://www.w3.org/2000/svg" xmlns:xlink="http://www.w3.org/1999/xlink" id="Camada_2" viewBox="0 0 640.1 133.01"><defs><style>      .cls-1 {        fill: #fed094;      }      .cls-2 {        fill: url(#Gradiente_sem_nome_4);      }      .cls-3 {        fill: #eaeaea;      }    </style><linearGradient id="Gradiente_sem_nome_4" data-name="Gradiente sem nome 4" x1="0" y1="66.5" x2="147.94" y2="66.5" gradientUnits="userSpaceOnUse"><stop offset="0" stop-color="#fed094"></stop><stop offset="1" stop-color="#876d53"></stop></linearGradient></defs><g id="Camada_1-2" data-name="Camada_1"><g><path class="cls-3" d="M187.62,106.25h-19.19l29.25-84.72h23.08l29.21,84.72h-19.19l-21.22-65.36h-.66l-21.26,65.36ZM186.42,72.94h45.34v13.98h-45.34v-13.98Z"></path><path class="cls-3" d="M284.34,106.25h-30.03V21.52h30.28c8.52,0,15.86,1.69,22.01,5.07,6.15,3.38,10.89,8.23,14.21,14.54,3.32,6.32,4.99,13.87,4.99,22.67s-1.66,16.41-4.99,22.75c-3.32,6.34-8.08,11.21-14.27,14.6-6.19,3.39-13.59,5.09-22.19,5.09ZM272.22,90.9h11.38c5.29,0,9.76-.95,13.38-2.83,3.63-1.89,6.36-4.83,8.19-8.81,1.83-3.99,2.75-9.14,2.75-15.45s-.92-11.38-2.75-15.35c-1.83-3.97-4.56-6.89-8.17-8.77-3.61-1.88-8.07-2.81-13.36-2.81h-11.42v54.03Z"></path><path class="cls-3" d="M348.51,21.52l20.48,64.37h.79l20.52-64.37h19.86l-29.21,84.72h-23.08l-29.25-84.72h19.9Z"></path><path class="cls-1" d="M414.5,106.25V21.52h17.91v34.96h36.36V21.52h17.87v84.72h-17.87v-35h-36.36v35h-17.91Z"></path><path class="cls-1" d="M547.93,21.52h17.91v55.02c0,6.18-1.47,11.58-4.41,16.22-2.94,4.63-7.04,8.24-12.31,10.82-5.27,2.58-11.4,3.87-18.41,3.87s-13.18-1.29-18.45-3.87-9.36-6.18-12.29-10.82c-2.92-4.63-4.38-10.04-4.38-16.22V21.52h17.91v53.49c0,3.23.71,6.1,2.13,8.6,1.42,2.51,3.43,4.48,6.02,5.92,2.59,1.43,5.61,2.15,9.06,2.15s6.5-.72,9.08-2.15c2.58-1.43,4.58-3.41,6-5.92,1.42-2.51,2.13-5.38,2.13-8.6V21.52Z"></path><path class="cls-1" d="M574.74,106.25V21.52h33.92c6.23,0,11.43.92,15.6,2.77,4.16,1.85,7.29,4.41,9.39,7.67,2.1,3.27,3.14,7.03,3.14,11.27,0,3.31-.66,6.21-1.99,8.71-1.32,2.5-3.14,4.54-5.44,6.12-2.3,1.59-4.93,2.71-7.88,3.37v.83c3.23.14,6.25,1.05,9.08,2.73,2.83,1.68,5.12,4.03,6.89,7.05,1.76,3.02,2.65,6.61,2.65,10.78,0,4.5-1.11,8.5-3.33,12.02-2.22,3.52-5.5,6.3-9.83,8.34-4.33,2.04-9.67,3.06-16.01,3.06h-36.2ZM592.65,56.97h13.28c2.45,0,4.64-.43,6.56-1.3,1.92-.87,3.43-2.1,4.55-3.7s1.68-3.52,1.68-5.75c0-3.06-1.08-5.53-3.25-7.4-2.17-1.88-5.23-2.81-9.2-2.81h-13.61v20.97ZM592.65,91.6h14.6c4.99,0,8.63-.96,10.92-2.88,2.29-1.92,3.43-4.47,3.43-7.67,0-2.34-.56-4.41-1.7-6.21-1.13-1.79-2.74-3.2-4.82-4.22-2.08-1.02-4.56-1.53-7.43-1.53h-15.02v22.5Z"></path></g><path class="cls-2" d="M147.82,112.74c1.22,10.97-7.34,20.26-18.07,20.26-7.04,0-13.13-4-16.15-9.85-1.41-2.73-4.36-4.32-7.43-4.32h-8.64c-3.07,0-6.02,1.59-7.43,4.32-3.02,5.85-9.11,9.85-16.15,9.85-10.73,0-19.29-9.29-18.07-20.26.94-8.43,7.88-15.24,16.32-16.02,7.78-.72,14.65,3.45,17.91,9.79,1.4,2.71,4.32,4.29,7.38,4.29h8.73c3.05,0,5.98-1.58,7.38-4.29,3.26-6.34,10.14-10.52,17.91-9.79,8.45.79,15.39,7.59,16.32,16.02ZM55.52,50.98c-8.26-5.08-19.44-2.56-24.74,5.56-4.01,6.15-3.82,13.82-.13,19.65,1.6,2.53,1.84,5.68.35,8.27l-4.73,8.2c-1.47,2.54-4.21,4.17-7.14,4.01-6.15-.34-12.33,2.44-16.07,7.95-5.34,7.87-3.52,18.93,4.06,24.68,8.2,6.21,19.85,4.41,25.79-3.9,4.49-6.28,4.41-14.45.41-20.54-1.61-2.46-1.54-5.67-.07-8.22l4.61-8c1.46-2.53,4.19-4.18,7.11-4.02,6.26.36,12.54-2.54,16.24-8.16,5.62-8.55,3.09-20.09-5.69-25.49ZM118,58.12c-3.36-6.49-10.07-10.09-16.92-9.8-2.96.13-5.79-1.23-7.27-3.8l-4.75-8.23c-1.46-2.53-1.52-5.72.08-8.17,3.43-5.23,4.07-12.1,1.06-18.13-4.27-8.54-14.87-12.35-23.6-8.49-9.41,4.16-13.47,15.22-9.08,24.45,3.27,6.88,10.29,10.74,17.45,10.33,2.92-.17,5.66,1.48,7.12,4.01l4.62,8.01c1.47,2.55,1.55,5.76-.07,8.22-3.48,5.32-4.08,12.3-.94,18.34,4.72,9.08,16.03,12.51,25.03,7.48,8.43-4.72,11.7-15.64,7.26-24.22Z"></path></g></svg>